<svg width="282" height="67" viewBox="0 0 282 67" fill="none" xmlns="http://www.w3.org/2000/svg">
<g clip-path="url(#clip0)">
<path d="M35.3446 0.450806C16.9987 0.450806 1.96948 13.8894 0.541321 30.9677L19.2598 38.3199C20.8459 37.2894 22.7619 36.6857 24.8233 36.6857C25.008 36.6857 25.1919 36.6917 25.3743 36.7014L33.6986 25.2391C33.6986 25.1844 33.6978 25.1311 33.6978 25.0771C33.6978 18.1779 39.6054 12.5649 46.8686 12.5649C54.131 12.5649 60.0386 18.1779 60.0386 25.0771C60.0386 31.9764 54.131 37.5902 46.8686 37.5902C46.7683 37.5902 46.6689 37.5879 46.5694 37.5857L34.6972 45.6332C34.7036 45.7795 34.7091 45.9287 34.7091 46.0772C34.7091 51.2567 30.2746 55.4688 24.8233 55.4688C20.0382 55.4688 16.0372 52.2242 15.1308 47.9275L1.74448 42.67C5.88924 56.596 19.3569 66.8058 35.3446 66.8058C54.6331 66.8058 70.2687 51.9512 70.2687 33.6294C70.2687 15.3046 54.6323 0.450806 35.3446 0.450806Z" fill="#C5C3C0"/>
<path d="M22.4277 50.7925L18.1377 49.1087C18.898 50.6125 20.2132 51.8717 21.9596 52.5632C25.7348 54.0573 30.0872 52.3555 31.6606 48.766C32.4225 47.0305 32.4272 45.1142 31.6717 43.3742C30.9177 41.6335 29.4951 40.276 27.6659 39.5514C25.8509 38.8337 23.9064 38.8599 22.198 39.4727L26.6293 41.2135C29.4138 42.316 30.7306 45.3535 29.5701 47.9987C28.4119 50.6447 25.2122 51.8957 22.4277 50.7925Z" fill="#C5C3C0"/>
<path d="M55.645 25.0771C55.645 20.4804 51.7087 16.7401 46.8692 16.7401C42.0305 16.7401 38.0934 20.4804 38.0934 25.0771C38.0934 29.6747 42.0305 33.4134 46.8692 33.4134C51.7087 33.4127 55.645 29.6739 55.645 25.0771ZM40.2913 25.0629C40.2913 21.6039 43.2431 18.8004 46.8842 18.8004C50.5253 18.8004 53.4771 21.6039 53.4771 25.0629C53.4771 28.5219 50.5253 31.3254 46.8842 31.3254C43.2431 31.3254 40.2913 28.5212 40.2913 25.0629Z" fill="#C5C3C0"/>
<path d="M107.567 23.1511L105.227 27.0586C103.425 25.8624 100.982 25.1424 98.8499 25.1424C96.4128 25.1424 94.9049 26.1009 94.9049 27.8177C94.9049 29.9034 97.5835 30.3887 101.565 31.7462C105.845 33.1839 108.305 34.8737 108.305 38.5974C108.305 43.6922 104.087 46.5535 98.0257 46.5535C95.0714 46.5535 91.5077 45.829 88.7682 44.2457L90.4751 39.9137C92.7006 41.0305 95.3627 41.6927 97.7359 41.6927C100.935 41.6927 102.455 40.5714 102.455 38.9139C102.455 37.0172 100.137 36.4472 96.3938 35.2697C92.1283 33.9167 89.1725 32.1414 89.1725 28.0202C89.1725 23.3724 93.0906 20.7031 98.7283 20.7031C102.658 20.7031 105.815 21.8859 107.567 23.1511Z" fill="#C5C3C0"/>
<path d="M125.859 25.6209V46.1252H120.35V25.6209H112.352V21.1313H133.833V25.6209H125.859Z" fill="#C5C3C0"/>
<path d="M145.448 25.6074V31.2391H155.992V35.7287H145.448V41.5944H157.682V46.1252H139.94V21.1313H157.682V25.6074H145.448Z" fill="#C5C3C0"/>
<path d="M169.979 41.2727L168.238 46.1259H162.462L172.326 21.1321H177.872L188.016 46.1252H182.045L180.265 41.2719H169.979V41.2727ZM175.068 27.0939L171.475 37.1011H178.735L175.068 27.0939Z" fill="#C5C3C0"/>
<path d="M216.292 30.7921L209.092 45.3969H205.983L198.9 30.9226V46.1252H193.624V21.1313H198.888L207.731 39.1734L216.259 21.1313H221.569V46.1252H216.293L216.292 30.7921Z" fill="#C5C3C0"/>
<path d="M232.22 24.2844C232.22 26.4324 230.526 27.7711 228.581 27.7711C226.63 27.7711 224.932 26.4324 224.932 24.2844C224.932 22.1371 226.63 20.8074 228.581 20.8074C230.527 20.8074 232.22 22.1371 232.22 24.2844ZM225.544 24.2844C225.544 26.0814 226.906 27.2101 228.581 27.2101C230.25 27.2101 231.608 26.0814 231.608 24.2844C231.608 22.4821 230.25 21.3706 228.581 21.3706C226.911 21.3706 225.544 22.4956 225.544 24.2844ZM228.632 22.5076C229.575 22.5076 229.893 22.9816 229.893 23.4939C229.893 23.9634 229.6 24.2784 229.243 24.4389L230.089 25.9441H229.396L228.683 24.6099H227.948V25.9441H227.372V22.5076H228.632ZM227.954 24.1066H228.596C229.013 24.1066 229.258 23.8584 229.258 23.5464C229.258 23.2314 229.082 23.0289 228.595 23.0289H227.953V24.1066H227.954Z" fill="#C5C3C0"/>
</g>
<defs>
<clipPath id="clip0">
<rect width="280.79" height="67" fill="white" transform="translate(0.421082)"/>
</clipPath>
</defs>
</svg>
